<svg width="500" height="400" viewBox="0 0 500 400" fill="none" xmlns="http://www.w3.org/2000/svg">
  <!-- Arrière-plan avec motif de circuit -->
  <g opacity="0.1">
    <path d="M100,50 L200,50 L200,100 L250,100 L250,150 L300,150 L300,250 L350,250 L350,300 L400,300" stroke="#0055A4" stroke-width="2" />
    <path d="M50,100 L100,100 L100,200 L150,200 L150,250 L200,250 L200,300 L250,300 L250,350" stroke="#0055A4" stroke-width="2" />
    <path d="M150,50 L150,100 L200,100 L200,150 L250,150 L250,200 L300,200 L300,250" stroke="#0055A4" stroke-width="2" />
    <path d="M300,50 L300,100 L350,100 L350,150 L400,150" stroke="#0055A4" stroke-width="2" />
    
    <circle cx="100" cy="50" r="4" fill="#0055A4" />
    <circle cx="200" cy="50" r="4" fill="#0055A4" />
    <circle cx="200" cy="100" r="4" fill="#0055A4" />
    <circle cx="250" cy="100" r="4" fill="#0055A4" />
    <circle cx="250" cy="150" r="4" fill="#0055A4" />
    <circle cx="300" cy="150" r="4" fill="#0055A4" />
    <circle cx="300" cy="250" r="4" fill="#0055A4" />
    <circle cx="350" cy="250" r="4" fill="#0055A4" />
    <circle cx="350" cy="300" r="4" fill="#0055A4" />
    <circle cx="400" cy="300" r="4" fill="#0055A4" />
    
    <circle cx="50" cy="100" r="4" fill="#0055A4" />
    <circle cx="100" cy="100" r="4" fill="#0055A4" />
    <circle cx="100" cy="200" r="4" fill="#0055A4" />
    <circle cx="150" cy="200" r="4" fill="#0055A4" />
    <circle cx="150" cy="250" r="4" fill="#0055A4" />
    <circle cx="200" cy="250" r="4" fill="#0055A4" />
    <circle cx="200" cy="300" r="4" fill="#0055A4" />
    <circle cx="250" cy="300" r="4" fill="#0055A4" />
    <circle cx="250" cy="350" r="4" fill="#0055A4" />
    
    <circle cx="150" cy="50" r="4" fill="#0055A4" />
    <circle cx="150" cy="100" r="4" fill="#0055A4" />
    <circle cx="200" cy="100" r="4" fill="#0055A4" />
    <circle cx="200" cy="150" r="4" fill="#0055A4" />
    <circle cx="250" cy="150" r="4" fill="#0055A4" />
    <circle cx="250" cy="200" r="4" fill="#0055A4" />
    <circle cx="300" cy="200" r="4" fill="#0055A4" />
    <circle cx="300" cy="250" r="4" fill="#0055A4" />
    
    <circle cx="300" cy="50" r="4" fill="#0055A4" />
    <circle cx="300" cy="100" r="4" fill="#0055A4" />
    <circle cx="350" cy="100" r="4" fill="#0055A4" />
    <circle cx="350" cy="150" r="4" fill="#0055A4" />
    <circle cx="400" cy="150" r="4" fill="#0055A4" />
  </g>
  
  <!-- Drapeau français en arrière-plan -->
  <rect x="150" y="100" width="30" height="200" fill="#0055A4" opacity="0.15" rx="2" />
  <rect x="180" y="100" width="30" height="200" fill="#FFFFFF" opacity="0.15" rx="2" />
  <rect x="210" y="100" width="30" height="200" fill="#EF4135" opacity="0.15" rx="2" />
  
  <!-- Forme principale du cerveau -->
  <path d="M350,200 C350,150 300,100 250,100 C200,100 150,150 150,200 C150,250 200,300 250,300 C300,300 350,250 350,200 Z" fill="url(#brain-gradient)" opacity="0.9" />
  
  <!-- Détails du cerveau -->
  <path d="M250,110 C210,110 160,150 160,200 C160,250 210,290 250,290" stroke="#FFFFFF" stroke-width="2" fill="none" />
  <path d="M250,110 C290,110 340,150 340,200 C340,250 290,290 250,290" stroke="#FFFFFF" stroke-width="2" fill="none" />
  
  <!-- Lignes de connexion neuronale -->
  <path d="M180,150 C200,140 220,170 240,160" stroke="#FFFFFF" stroke-width="1.5" opacity="0.8" />
  <path d="M180,200 C210,190 240,210 270,200" stroke="#FFFFFF" stroke-width="1.5" opacity="0.8" />
  <path d="M180,250 C200,240 220,260 240,250" stroke="#FFFFFF" stroke-width="1.5" opacity="0.8" />
  <path d="M260,160 C280,150 300,170 320,160" stroke="#FFFFFF" stroke-width="1.5" opacity="0.8" />
  <path d="M280,200 C300,190 310,210 320,200" stroke="#FFFFFF" stroke-width="1.5" opacity="0.8" />
  <path d="M260,250 C280,240 300,260 320,250" stroke="#FFFFFF" stroke-width="1.5" opacity="0.8" />
  
  <!-- Points de nœuds neuronaux -->
  <circle cx="180" cy="150" r="4" fill="#FFFFFF" />
  <circle cx="240" cy="160" r="4" fill="#FFFFFF" />
  <circle cx="180" cy="200" r="4" fill="#FFFFFF" />
  <circle cx="270" cy="200" r="4" fill="#FFFFFF" />
  <circle cx="180" cy="250" r="4" fill="#FFFFFF" />
  <circle cx="240" cy="250" r="4" fill="#FFFFFF" />
  <circle cx="260" cy="160" r="4" fill="#FFFFFF" />
  <circle cx="320" cy="160" r="4" fill="#FFFFFF" />
  <circle cx="280" cy="200" r="4" fill="#FFFFFF" />
  <circle cx="320" cy="200" r="4" fill="#FFFFFF" />
  <circle cx="260" cy="250" r="4" fill="#FFFFFF" />
  <circle cx="320" cy="250" r="4" fill="#FFFFFF" />
  
  <!-- Pulsations animées -->
  <circle cx="240" cy="160" r="8" fill="#FFFFFF" opacity="0.3">
    <animate attributeName="r" values="4;8;4" dur="3s" repeatCount="indefinite" />
    <animate attributeName="opacity" values="0.8;0.2;0.8" dur="3s" repeatCount="indefinite" />
  </circle>
  <circle cx="270" cy="200" r="8" fill="#FFFFFF" opacity="0.3">
    <animate attributeName="r" values="4;8;4" dur="4s" repeatCount="indefinite" />
    <animate attributeName="opacity" values="0.8;0.2;0.8" dur="4s" repeatCount="indefinite" />
  </circle>
  <circle cx="260" cy="250" r="8" fill="#FFFFFF" opacity="0.3">
    <animate attributeName="r" values="4;8;4" dur="5s" repeatCount="indefinite" />
    <animate attributeName="opacity" values="0.8;0.2;0.8" dur="5s" repeatCount="indefinite" />
  </circle>
  
  <!-- Définition des gradients -->
  <defs>
    <linearGradient id="brain-gradient" x1="150" y1="100" x2="350" y2="300" gradientUnits="userSpaceOnUse">
      <stop offset="0" stop-color="#0055A4" />
      <stop offset="0.5" stop-color="#3A86FF" />
      <stop offset="1" stop-color="#00A6FB" />
    </linearGradient>
  </defs>
</svg> 